<mxfile host="app.diagrams.net" modified="2021-05-13T15:14:01.120Z" agent="5.0 (X11)" etag="x1jaayB9_2xBpXu98u66" version="14.4.2" type="github">
  <diagram id="kgpKYQtTHZ0yAKxKKP6v" name="Page-1">
    <mxGraphModel dx="2370" dy="1377" grid="1" gridSize="10" guides="1" tooltips="1" connect="1" arrows="1" fold="1" page="1" pageScale="1" pageWidth="850" pageHeight="1100" math="0" shadow="0">
      <root>
        <mxCell id="0" />
        <mxCell id="1" parent="0" />
        <mxCell id="DU29VkHx1H7ue-evi2vu-45" style="edgeStyle=orthogonalEdgeStyle;shape=flexArrow;curved=1;orthogonalLoop=1;jettySize=auto;html=1;entryX=0.07;entryY=0.4;entryDx=0;entryDy=0;entryPerimeter=0;startArrow=classic;startFill=1;endArrow=classic;endFill=1;strokeWidth=2;fillColor=none;" edge="1" parent="1" source="DU29VkHx1H7ue-evi2vu-1" target="DU29VkHx1H7ue-evi2vu-8">
          <mxGeometry relative="1" as="geometry" />
        </mxCell>
        <mxCell id="DU29VkHx1H7ue-evi2vu-1" value="" style="rounded=0;whiteSpace=wrap;html=1;strokeWidth=3;fillColor=#fff2cc;strokeColor=#d6b656;" vertex="1" parent="1">
          <mxGeometry x="60" y="150" width="400" height="120" as="geometry" />
        </mxCell>
        <mxCell id="DU29VkHx1H7ue-evi2vu-2" value="" style="rounded=0;whiteSpace=wrap;html=1;fillColor=#f8cecc;strokeColor=#b85450;" vertex="1" parent="1">
          <mxGeometry x="60" y="320" width="400" height="190" as="geometry" />
        </mxCell>
        <mxCell id="DU29VkHx1H7ue-evi2vu-4" value="&lt;u&gt;&lt;b&gt;&lt;font style=&quot;font-size: 18px&quot;&gt;Edge Processor Unit&lt;/font&gt;&lt;/b&gt;&lt;/u&gt;" style="text;html=1;strokeColor=none;fillColor=none;align=center;verticalAlign=middle;whiteSpace=wrap;rounded=0;" vertex="1" parent="1">
          <mxGeometry x="70" y="160" width="200" height="40" as="geometry" />
        </mxCell>
        <mxCell id="DU29VkHx1H7ue-evi2vu-5" value="&lt;font style=&quot;font-size: 18px&quot;&gt;Processor&lt;/font&gt;" style="text;html=1;align=center;verticalAlign=middle;whiteSpace=wrap;rounded=0;strokeColor=#000000;strokeWidth=2;" vertex="1" parent="1">
          <mxGeometry x="270" y="210" width="170" height="40" as="geometry" />
        </mxCell>
        <mxCell id="DU29VkHx1H7ue-evi2vu-6" value="&lt;font style=&quot;font-size: 18px&quot;&gt;Camera&lt;/font&gt;" style="text;html=1;fillColor=none;align=center;verticalAlign=middle;whiteSpace=wrap;rounded=0;strokeColor=#000000;strokeWidth=2;" vertex="1" parent="1">
          <mxGeometry x="80" y="210" width="180" height="40" as="geometry" />
        </mxCell>
        <mxCell id="DU29VkHx1H7ue-evi2vu-7" value="&lt;font style=&quot;font-size: 18px&quot;&gt;Display&lt;/font&gt;" style="text;html=1;fillColor=none;align=center;verticalAlign=middle;whiteSpace=wrap;rounded=0;strokeColor=#000000;strokeWidth=2;" vertex="1" parent="1">
          <mxGeometry x="280" y="165" width="160" height="35" as="geometry" />
        </mxCell>
        <mxCell id="DU29VkHx1H7ue-evi2vu-8" value="" style="ellipse;shape=cloud;whiteSpace=wrap;html=1;strokeColor=#6c8ebf;strokeWidth=2;fillColor=#dae8fc;" vertex="1" parent="1">
          <mxGeometry x="610" y="70" width="210" height="180" as="geometry" />
        </mxCell>
        <mxCell id="DU29VkHx1H7ue-evi2vu-10" value="&lt;b&gt;&lt;font style=&quot;font-size: 19px&quot;&gt;Weather API&lt;/font&gt;&lt;/b&gt;" style="text;html=1;strokeColor=none;fillColor=none;align=center;verticalAlign=middle;whiteSpace=wrap;rounded=0;" vertex="1" parent="1">
          <mxGeometry x="660" y="130" width="110" height="70" as="geometry" />
        </mxCell>
        <mxCell id="DU29VkHx1H7ue-evi2vu-12" value="&lt;font style=&quot;font-size: 17px&quot;&gt;&lt;u&gt;&lt;b&gt;&lt;font style=&quot;font-size: 17px&quot;&gt;Edge Controller Unit&lt;/font&gt;&lt;/b&gt;&lt;/u&gt;&lt;/font&gt;" style="text;html=1;strokeColor=none;fillColor=none;align=center;verticalAlign=middle;whiteSpace=wrap;rounded=0;" vertex="1" parent="1">
          <mxGeometry x="70" y="340" width="180" height="30" as="geometry" />
        </mxCell>
        <mxCell id="DU29VkHx1H7ue-evi2vu-17" style="edgeStyle=orthogonalEdgeStyle;curved=1;orthogonalLoop=1;jettySize=auto;html=1;exitX=0.5;exitY=1;exitDx=0;exitDy=0;entryX=1;entryY=0.25;entryDx=0;entryDy=0;startArrow=none;endArrow=classic;endFill=1;fillColor=none;strokeWidth=2;startFill=0;" edge="1" parent="1" source="DU29VkHx1H7ue-evi2vu-13" target="DU29VkHx1H7ue-evi2vu-15">
          <mxGeometry relative="1" as="geometry" />
        </mxCell>
        <mxCell id="DU29VkHx1H7ue-evi2vu-22" style="edgeStyle=orthogonalEdgeStyle;curved=1;orthogonalLoop=1;jettySize=auto;html=1;entryX=0.114;entryY=0.303;entryDx=0;entryDy=0;entryPerimeter=0;startArrow=classic;startFill=1;endArrow=classic;endFill=1;strokeWidth=2;fillColor=none;" edge="1" parent="1" source="DU29VkHx1H7ue-evi2vu-13" target="DU29VkHx1H7ue-evi2vu-19">
          <mxGeometry relative="1" as="geometry" />
        </mxCell>
        <mxCell id="DU29VkHx1H7ue-evi2vu-13" value="&lt;h1 align=&quot;center&quot;&gt;&lt;font style=&quot;font-size: 16px&quot;&gt;Set of Sensors &lt;span style=&quot;font-weight: normal&quot;&gt;(z.B)&lt;/span&gt;&lt;/font&gt;&lt;br&gt;&lt;/h1&gt;&lt;p style=&quot;font-size: 15px ; line-height: 0%&quot; align=&quot;center&quot;&gt;Luminosity, Temperature&lt;br&gt;&lt;/p&gt;" style="text;html=1;fillColor=none;spacing=5;spacingTop=-20;whiteSpace=wrap;overflow=hidden;rounded=0;strokeColor=#000000;strokeWidth=2;align=center;" vertex="1" parent="1">
          <mxGeometry x="260" y="330" width="190" height="70" as="geometry" />
        </mxCell>
        <mxCell id="DU29VkHx1H7ue-evi2vu-15" value="&lt;h1 align=&quot;center&quot;&gt;&lt;font style=&quot;font-size: 16px&quot;&gt;Set of Actuators &lt;span style=&quot;font-weight: normal&quot;&gt;(z.B)&lt;/span&gt;&lt;/font&gt;&lt;br&gt;&lt;/h1&gt;&lt;p style=&quot;font-size: 15px ; line-height: 0%&quot; align=&quot;center&quot;&gt;AC, Lights, Heater&lt;br&gt;&lt;/p&gt;" style="text;html=1;fillColor=none;spacing=5;spacingTop=-20;whiteSpace=wrap;overflow=hidden;rounded=0;strokeColor=#000000;strokeWidth=2;align=center;" vertex="1" parent="1">
          <mxGeometry x="70" y="430" width="190" height="70" as="geometry" />
        </mxCell>
        <mxCell id="DU29VkHx1H7ue-evi2vu-18" style="edgeStyle=orthogonalEdgeStyle;curved=1;orthogonalLoop=1;jettySize=auto;html=1;entryX=1;entryY=0.5;entryDx=0;entryDy=0;startArrow=none;endArrow=classicThin;endFill=1;strokeWidth=2;fillColor=none;startFill=0;" edge="1" parent="1" source="DU29VkHx1H7ue-evi2vu-16" target="DU29VkHx1H7ue-evi2vu-15">
          <mxGeometry relative="1" as="geometry" />
        </mxCell>
        <mxCell id="DU29VkHx1H7ue-evi2vu-23" style="edgeStyle=orthogonalEdgeStyle;curved=1;orthogonalLoop=1;jettySize=auto;html=1;entryX=0.066;entryY=0.445;entryDx=0;entryDy=0;entryPerimeter=0;startArrow=classic;startFill=1;endArrow=classic;endFill=1;strokeWidth=2;fillColor=none;" edge="1" parent="1" source="DU29VkHx1H7ue-evi2vu-16" target="DU29VkHx1H7ue-evi2vu-19">
          <mxGeometry relative="1" as="geometry" />
        </mxCell>
        <mxCell id="DU29VkHx1H7ue-evi2vu-16" value="&lt;font style=&quot;font-size: 18px&quot;&gt;Override&lt;/font&gt;" style="text;html=1;fillColor=none;align=center;verticalAlign=middle;whiteSpace=wrap;rounded=0;strokeColor=#000000;strokeWidth=2;" vertex="1" parent="1">
          <mxGeometry x="345" y="450" width="105" height="50" as="geometry" />
        </mxCell>
        <mxCell id="DU29VkHx1H7ue-evi2vu-21" style="edgeStyle=orthogonalEdgeStyle;curved=1;orthogonalLoop=1;jettySize=auto;html=1;entryX=1;entryY=0.5;entryDx=0;entryDy=0;startArrow=classic;startFill=1;endArrow=classic;endFill=1;strokeWidth=2;fillColor=none;" edge="1" parent="1" source="DU29VkHx1H7ue-evi2vu-19" target="DU29VkHx1H7ue-evi2vu-5">
          <mxGeometry relative="1" as="geometry">
            <Array as="points">
              <mxPoint x="640" y="230" />
            </Array>
          </mxGeometry>
        </mxCell>
        <mxCell id="DU29VkHx1H7ue-evi2vu-19" value="" style="ellipse;shape=cloud;whiteSpace=wrap;html=1;strokeColor=#9673a6;strokeWidth=2;fillColor=#e1d5e7;shadow=0;" vertex="1" parent="1">
          <mxGeometry x="520" y="360" width="260" height="185" as="geometry" />
        </mxCell>
        <mxCell id="DU29VkHx1H7ue-evi2vu-20" value="&lt;b&gt;&lt;font style=&quot;font-size: 21px&quot;&gt;Pub Sub Communication&lt;/font&gt;&lt;/b&gt;" style="text;html=1;strokeColor=none;fillColor=none;align=center;verticalAlign=middle;whiteSpace=wrap;rounded=0;shadow=0;" vertex="1" parent="1">
          <mxGeometry x="550" y="395" width="200" height="110" as="geometry" />
        </mxCell>
        <mxCell id="DU29VkHx1H7ue-evi2vu-25" value="" style="rounded=0;whiteSpace=wrap;html=1;fillColor=#f8cecc;strokeColor=#b85450;" vertex="1" parent="1">
          <mxGeometry x="60" y="570" width="400" height="190" as="geometry" />
        </mxCell>
        <mxCell id="DU29VkHx1H7ue-evi2vu-26" value="&lt;font style=&quot;font-size: 17px&quot;&gt;&lt;u&gt;&lt;b&gt;&lt;font style=&quot;font-size: 17px&quot;&gt;Edge Controller Unit&lt;/font&gt;&lt;/b&gt;&lt;/u&gt;&lt;/font&gt;" style="text;html=1;strokeColor=none;fillColor=none;align=center;verticalAlign=middle;whiteSpace=wrap;rounded=0;" vertex="1" parent="1">
          <mxGeometry x="70" y="590" width="180" height="30" as="geometry" />
        </mxCell>
        <mxCell id="DU29VkHx1H7ue-evi2vu-27" style="edgeStyle=orthogonalEdgeStyle;curved=1;orthogonalLoop=1;jettySize=auto;html=1;exitX=0.5;exitY=1;exitDx=0;exitDy=0;entryX=1;entryY=0.25;entryDx=0;entryDy=0;startArrow=none;endArrow=classic;endFill=1;fillColor=none;strokeWidth=2;startFill=0;" edge="1" parent="1" source="DU29VkHx1H7ue-evi2vu-28" target="DU29VkHx1H7ue-evi2vu-29">
          <mxGeometry relative="1" as="geometry" />
        </mxCell>
        <mxCell id="DU29VkHx1H7ue-evi2vu-35" style="edgeStyle=orthogonalEdgeStyle;curved=1;orthogonalLoop=1;jettySize=auto;html=1;entryX=0.192;entryY=0.817;entryDx=0;entryDy=0;entryPerimeter=0;startArrow=classic;startFill=1;endArrow=classic;endFill=1;strokeWidth=2;fillColor=none;" edge="1" parent="1" source="DU29VkHx1H7ue-evi2vu-28" target="DU29VkHx1H7ue-evi2vu-19">
          <mxGeometry relative="1" as="geometry" />
        </mxCell>
        <mxCell id="DU29VkHx1H7ue-evi2vu-28" value="&lt;h1 align=&quot;center&quot;&gt;&lt;font style=&quot;font-size: 16px&quot;&gt;Set of Sensors &lt;span style=&quot;font-weight: normal&quot;&gt;(z.B)&lt;/span&gt;&lt;/font&gt;&lt;br&gt;&lt;/h1&gt;&lt;p style=&quot;font-size: 15px ; line-height: 0%&quot; align=&quot;center&quot;&gt;Limit Switch, Humidity&lt;br&gt;&lt;/p&gt;" style="text;html=1;fillColor=none;spacing=5;spacingTop=-20;whiteSpace=wrap;overflow=hidden;rounded=0;strokeColor=#000000;strokeWidth=2;align=center;" vertex="1" parent="1">
          <mxGeometry x="260" y="580" width="190" height="70" as="geometry" />
        </mxCell>
        <mxCell id="DU29VkHx1H7ue-evi2vu-29" value="&lt;h1 align=&quot;center&quot;&gt;&lt;font style=&quot;font-size: 16px&quot;&gt;Set of Actuators &lt;span style=&quot;font-weight: normal&quot;&gt;(z.B)&lt;/span&gt;&lt;/font&gt;&lt;br&gt;&lt;/h1&gt;&lt;p style=&quot;font-size: 15px ; line-height: 0%&quot; align=&quot;center&quot;&gt;Null&lt;br&gt;&lt;/p&gt;" style="text;html=1;fillColor=none;spacing=5;spacingTop=-20;whiteSpace=wrap;overflow=hidden;rounded=0;strokeColor=#000000;strokeWidth=2;align=center;" vertex="1" parent="1">
          <mxGeometry x="70" y="680" width="190" height="70" as="geometry" />
        </mxCell>
        <mxCell id="DU29VkHx1H7ue-evi2vu-30" style="edgeStyle=orthogonalEdgeStyle;curved=1;orthogonalLoop=1;jettySize=auto;html=1;entryX=1;entryY=0.5;entryDx=0;entryDy=0;startArrow=none;endArrow=classicThin;endFill=1;strokeWidth=2;fillColor=none;startFill=0;dashed=1;" edge="1" parent="1" source="DU29VkHx1H7ue-evi2vu-31" target="DU29VkHx1H7ue-evi2vu-29">
          <mxGeometry relative="1" as="geometry" />
        </mxCell>
        <mxCell id="DU29VkHx1H7ue-evi2vu-36" style="edgeStyle=orthogonalEdgeStyle;curved=1;orthogonalLoop=1;jettySize=auto;html=1;entryX=0.388;entryY=0.907;entryDx=0;entryDy=0;entryPerimeter=0;startArrow=classic;startFill=1;endArrow=classic;endFill=1;strokeWidth=2;fillColor=none;dashed=1;" edge="1" parent="1" source="DU29VkHx1H7ue-evi2vu-31" target="DU29VkHx1H7ue-evi2vu-19">
          <mxGeometry relative="1" as="geometry" />
        </mxCell>
        <mxCell id="DU29VkHx1H7ue-evi2vu-31" value="&lt;font style=&quot;font-size: 18px&quot;&gt;Override&lt;/font&gt;" style="text;html=1;fillColor=none;align=center;verticalAlign=middle;whiteSpace=wrap;rounded=0;strokeColor=#000000;strokeWidth=2;dashed=1;" vertex="1" parent="1">
          <mxGeometry x="345" y="700" width="105" height="50" as="geometry" />
        </mxCell>
        <mxCell id="DU29VkHx1H7ue-evi2vu-32" value="&lt;font style=&quot;font-size: 17px&quot;&gt;MicroController&lt;/font&gt;" style="text;html=1;fillColor=none;align=center;verticalAlign=middle;whiteSpace=wrap;rounded=0;shadow=0;strokeColor=#000000;strokeWidth=2;" vertex="1" parent="1">
          <mxGeometry x="70" y="380" width="180" height="40" as="geometry" />
        </mxCell>
        <mxCell id="DU29VkHx1H7ue-evi2vu-34" value="&lt;font style=&quot;font-size: 17px&quot;&gt;MicroController&lt;/font&gt;" style="text;html=1;fillColor=none;align=center;verticalAlign=middle;whiteSpace=wrap;rounded=0;shadow=0;strokeColor=#000000;strokeWidth=2;" vertex="1" parent="1">
          <mxGeometry x="70" y="630" width="180" height="40" as="geometry" />
        </mxCell>
        <mxCell id="DU29VkHx1H7ue-evi2vu-38" style="edgeStyle=orthogonalEdgeStyle;curved=1;orthogonalLoop=1;jettySize=auto;html=1;entryX=0.55;entryY=0.95;entryDx=0;entryDy=0;entryPerimeter=0;startArrow=classic;startFill=1;endArrow=classic;endFill=1;strokeWidth=2;fillColor=none;shape=flexArrow;" edge="1" parent="1" source="DU29VkHx1H7ue-evi2vu-37" target="DU29VkHx1H7ue-evi2vu-19">
          <mxGeometry relative="1" as="geometry" />
        </mxCell>
        <mxCell id="DU29VkHx1H7ue-evi2vu-37" value="&lt;p style=&quot;line-height: 50% ; font-size: 17px&quot;&gt;&lt;font style=&quot;font-size: 17px&quot;&gt;&lt;b&gt;Visualization Tool&lt;br&gt;&lt;br&gt;&lt;br&gt;&lt;/b&gt;&lt;span&gt;e.g. BI Tool Dashboard, &lt;/span&gt;&lt;span style=&quot;line-height: 160%&quot;&gt;Controller Dashboard &lt;br&gt;&lt;/span&gt;&lt;/font&gt;&lt;/p&gt;" style="shape=ext;rounded=1;html=1;whiteSpace=wrap;strokeWidth=3;shadow=0;fillColor=#f5f5f5;strokeColor=#666666;fontColor=#333333;" vertex="1" parent="1">
          <mxGeometry x="580" y="710" width="240" height="120" as="geometry" />
        </mxCell>
        <mxCell id="DU29VkHx1H7ue-evi2vu-39" value="" style="outlineConnect=0;dashed=0;verticalLabelPosition=bottom;verticalAlign=top;align=center;html=1;shape=mxgraph.aws3.workspaces;fillColor=#D16A28;gradientColor=#F58435;gradientDirection=north;shadow=0;strokeColor=#000000;strokeWidth=2;" vertex="1" parent="1">
          <mxGeometry x="550" y="810" width="116.5" height="134.5" as="geometry" />
        </mxCell>
        <mxCell id="DU29VkHx1H7ue-evi2vu-40" value="" style="outlineConnect=0;dashed=0;verticalLabelPosition=bottom;verticalAlign=top;align=center;html=1;shape=mxgraph.aws3.workspaces;fillColor=#76608a;gradientDirection=north;shadow=0;strokeColor=#432D57;strokeWidth=2;fontColor=#ffffff;" vertex="1" parent="1">
          <mxGeometry x="727" y="810" width="123.5" height="140" as="geometry" />
        </mxCell>
        <mxCell id="DU29VkHx1H7ue-evi2vu-41" value="" style="shape=mxgraph.bpmn.user_task;html=1;outlineConnect=0;shadow=0;strokeColor=#000000;strokeWidth=2;fillColor=none;" vertex="1" parent="1">
          <mxGeometry x="430" y="830" width="100" height="110" as="geometry" />
        </mxCell>
        <mxCell id="DU29VkHx1H7ue-evi2vu-42" value="&lt;font size=&quot;1&quot;&gt;&lt;b&gt;&lt;font style=&quot;font-size: 16px&quot;&gt;Administrator&lt;/font&gt;&lt;/b&gt;&lt;/font&gt;" style="text;html=1;strokeColor=none;fillColor=none;align=center;verticalAlign=middle;whiteSpace=wrap;rounded=0;shadow=0;" vertex="1" parent="1">
          <mxGeometry x="421.25" y="940" width="117.5" height="50" as="geometry" />
        </mxCell>
        <mxCell id="DU29VkHx1H7ue-evi2vu-43" value="" style="shape=mxgraph.bpmn.user_task;html=1;outlineConnect=0;shadow=0;strokeColor=#000000;strokeWidth=2;fillColor=none;" vertex="1" parent="1">
          <mxGeometry x="828.75" y="870" width="100" height="110" as="geometry" />
        </mxCell>
        <mxCell id="DU29VkHx1H7ue-evi2vu-44" value="&lt;font size=&quot;1&quot;&gt;&lt;b&gt;&lt;font style=&quot;font-size: 17px&quot;&gt;User&lt;/font&gt;&lt;/b&gt;&lt;/font&gt;" style="text;html=1;strokeColor=none;fillColor=none;align=center;verticalAlign=middle;whiteSpace=wrap;rounded=0;shadow=0;" vertex="1" parent="1">
          <mxGeometry x="820" y="980" width="117.5" height="50" as="geometry" />
        </mxCell>
      </root>
    </mxGraphModel>
  </diagram>
</mxfile>
